<svg xmlns="http://www.w3.org/2000/svg" width="33" height="32" viewBox="0 0 33 32" fill="none">
  <path d="M12.6094 22.6562C12.6094 22.5625 12.5156 22.4688 12.375 22.4688C12.2344 22.4688 12.1406 22.5625 12.1406 22.6562C12.1406 22.75 12.2344 22.8438 12.375 22.7969C12.5156 22.7969 12.6094 22.75 12.6094 22.6562ZM11.1562 22.4219C11.1562 22.5156 11.25 22.6562 11.3906 22.6562C11.4844 22.7031 11.625 22.6562 11.6719 22.5625C11.6719 22.4688 11.625 22.375 11.4844 22.3281C11.3438 22.2812 11.2031 22.3281 11.1562 22.4219ZM13.2656 22.375C13.125 22.375 13.0312 22.4688 13.0312 22.6094C13.0312 22.7031 13.1719 22.75 13.3125 22.7031C13.4531 22.6562 13.5469 22.6094 13.5 22.5156C13.5 22.4219 13.3594 22.3281 13.2656 22.375ZM16.3125 4.375C9.84375 4.375 4.875 9.34375 4.875 15.8125C4.875 21.0156 8.10938 25.4688 12.7969 27.0625C13.4062 27.1562 13.5938 26.7812 13.5938 26.5C13.5938 26.1719 13.5938 24.5781 13.5938 23.5938C13.5938 23.5938 10.3125 24.2969 9.60938 22.1875C9.60938 22.1875 9.09375 20.8281 8.34375 20.5C8.34375 20.5 7.26562 19.75 8.39062 19.75C8.39062 19.75 9.5625 19.8438 10.2188 20.9688C11.25 22.7969 12.9375 22.2812 13.6406 21.9531C13.7344 21.2031 14.0156 20.6875 14.3906 20.3594C11.7656 20.0781 9.09375 19.7031 9.09375 15.2031C9.09375 13.8906 9.46875 13.2812 10.2188 12.4375C10.0781 12.1094 9.70312 10.8906 10.3594 9.25C11.2969 8.96875 13.5938 10.5156 13.5938 10.5156C14.5312 10.2344 15.5156 10.1406 16.5 10.1406C17.5312 10.1406 18.5156 10.2344 19.4531 10.5156C19.4531 10.5156 21.7031 8.92188 22.6875 9.25C23.3438 10.8906 22.9219 12.1094 22.8281 12.4375C23.5781 13.2812 24.0469 13.8906 24.0469 15.2031C24.0469 19.7031 21.2812 20.0781 18.6562 20.3594C19.0781 20.7344 19.4531 21.4375 19.4531 22.5625C19.4531 24.1094 19.4062 26.0781 19.4062 26.4531C19.4062 26.7812 19.6406 27.1562 20.25 27.0156C24.9375 25.4688 28.125 21.0156 28.125 15.8125C28.125 9.34375 22.8281 4.375 16.3125 4.375ZM9.42188 20.5469C9.32812 20.5938 9.375 20.7344 9.42188 20.8281C9.51562 20.875 9.60938 20.9219 9.70312 20.875C9.75 20.8281 9.75 20.6875 9.65625 20.5938C9.5625 20.5469 9.46875 20.5 9.42188 20.5469ZM8.90625 20.1719C8.85938 20.2656 8.90625 20.3125 9 20.3594C9.09375 20.4062 9.1875 20.4062 9.23438 20.3125C9.23438 20.2656 9.1875 20.2188 9.09375 20.1719C9 20.125 8.95312 20.125 8.90625 20.1719ZM10.4062 21.8594C10.3594 21.9062 10.3594 22.0469 10.5 22.1406C10.5938 22.2344 10.7344 22.2812 10.7812 22.1875C10.8281 22.1406 10.8281 22 10.7344 21.9062C10.6406 21.8125 10.5 21.7656 10.4062 21.8594ZM9.89062 21.1562C9.79688 21.2031 9.79688 21.3438 9.89062 21.4375C9.98438 21.5312 10.0781 21.5781 10.1719 21.5312C10.2188 21.4844 10.2188 21.3438 10.1719 21.25C10.0781 21.1562 9.98438 21.1094 9.89062 21.1562Z" fill="#D0D0D0"/>
</svg>